<svg clip-rule="evenodd" fill-rule="evenodd" stroke-linejoin="round" stroke-miterlimit="2" viewBox="0 0 50 50" xmlns="http://www.w3.org/2000/svg"><path d="m44.525 13.656c-.003-.373-.229-.555-.405-.771 0 0-8.636-10.25-10.473-12.32-.095-.106-.1-.108-.305-.312-.137-.136-.33-.253-.484-.253h-23.596c-2.091 0-3.79 1.675-3.79 3.739v41.85c0 2.064 1.699 3.739 3.79 3.739h31.475c2.092 0 3.79-1.675 3.79-3.739z" fill="#333f4c" transform="matrix(1 0 0 1.01362 0 -.000361)"/><g fill-rule="nonzero"><path d="m76.4 35.3c-.5-.9-1.5-1.5-2.6-1.5h-15.3l9.2-28.1c.3-.9.1-1.9-.4-2.7s-1.5-1.2-2.4-1.2h-24.2c-1.3 0-2.4.8-2.8 2.1l-16.5 50c-.3.9-.1 1.9.4 2.7.6.8 1.5 1.2 2.4 1.2h18l-2.3 35.2c-.1 1.4.8 2.7 2.2 3.1.3.1.6.1.8.1 1.1 0 2.1-.6 2.6-1.6l31-56.4c.5-.9.5-2-.1-2.9z" fill="#fec136" transform="matrix(.127097 0 0 .127097 32.46645 35.2803)"/><path d="m512 479.8v.2h-368c-79.53 0-144-64.5-144-144 0-62.7 40.07-116.9 96-135.8v-.2c0-92.8 75.2-168 168-168 50.9 0 96.4 22.6 127.3 58.31 14.9-6.63 31.3-10.31 48.7-10.31 66.3 0 120 53.7 120 120 0 6.6-.5 13-1.5 19.3 48 21 81.5 69 81.5 124.7 0 72.4-56.6 131.6-128 135.8z" fill="#fff" transform="matrix(.0436069 0 0 .0442791 10.818818 12.6721)"/></g></svg>